<svg width="27" height="27" viewBox="0 0 27 27" fill="none" xmlns="http://www.w3.org/2000/svg">
<circle cx="13.5" cy="13.5" r="13.5" fill="#4C4DDC"/>
<path d="M12.3713 8.75L10.8713 10.25H8V19.25H20V10.25H17.1287L15.6287 8.75H12.3713ZM11.75 7.25H16.25L17.75 8.75H20.75C21.1642 8.75 21.5 9.08579 21.5 9.5V20C21.5 20.4142 21.1642 20.75 20.75 20.75H7.25C6.83579 20.75 6.5 20.4142 6.5 20V9.5C6.5 9.08579 6.83579 8.75 7.25 8.75H10.25L11.75 7.25ZM14 18.5C11.7218 18.5 9.875 16.6532 9.875 14.375C9.875 12.0968 11.7218 10.25 14 10.25C16.2782 10.25 18.125 12.0968 18.125 14.375C18.125 16.6532 16.2782 18.5 14 18.5ZM14 17C15.4497 17 16.625 15.8247 16.625 14.375C16.625 12.9253 15.4497 11.75 14 11.75C12.5503 11.75 11.375 12.9253 11.375 14.375C11.375 15.8247 12.5503 17 14 17Z" fill="white"/>
</svg>
