<svg width="20" height="20" viewBox="0 0 20 20" fill="none" xmlns="http://www.w3.org/2000/svg">
<path d="M7.95832 9.58329C6.92279 9.58329 6.08332 8.74379 6.08332 7.70829C6.08332 6.67276 6.92279 5.83329 7.95832 5.83329C8.99382 5.83329 9.83332 6.67276 9.83332 7.70829C9.83332 8.74379 8.99382 9.58329 7.95832 9.58329ZM8.33332 16.4566V13.6666C8.33332 13.2596 8.45349 12.8855 8.67007 12.552C8.42391 12.5177 8.17233 12.5 7.91666 12.5C6.61 12.5 5.4114 12.9626 4.47575 13.733C5.37423 15.06 6.73826 16.046 8.33332 16.4566ZM3.71071 12.2166C4.88692 11.3473 6.34176 10.8333 7.91666 10.8333C8.78624 10.8333 9.61924 10.99 10.3889 11.2767C11.1206 10.9906 11.9937 10.8333 12.9167 10.8333C14.2997 10.8333 15.5707 11.1865 16.4217 11.7969C16.5813 11.2252 16.6667 10.6225 16.6667 9.99996C16.6667 6.31806 13.6819 3.33329 9.99999 3.33329C6.31809 3.33329 3.33332 6.31806 3.33332 9.99996C3.33332 10.777 3.46629 11.5231 3.71071 12.2166ZM15.7328 13.4049C15.4052 12.9605 14.309 12.5 12.9167 12.5C11.2449 12.5 9.99999 13.1639 9.99999 13.6666V16.6666C12.4379 16.6666 14.5702 15.358 15.7328 13.4049ZM9.99999 18.3333C5.39761 18.3333 1.66666 14.6023 1.66666 9.99996C1.66666 5.39758 5.39761 1.66663 9.99999 1.66663C14.6023 1.66663 18.3333 5.39758 18.3333 9.99996C18.3333 14.6023 14.6023 18.3333 9.99999 18.3333ZM12.9167 10.4166C11.9962 10.4166 11.25 9.67046 11.25 8.74996C11.25 7.82948 11.9962 7.08329 12.9167 7.08329C13.8372 7.08329 14.5833 7.82948 14.5833 8.74996C14.5833 9.67046 13.8372 10.4166 12.9167 10.4166Z" fill="#4C4DDC"/>
</svg>
