<svg width="45" height="42" viewBox="0 0 45 42" fill="none" xmlns="http://www.w3.org/2000/svg">
<path fill-rule="evenodd" clip-rule="evenodd" d="M10.6073 28.4857C10.5058 28.4927 10.4037 28.5104 10.3032 28.5034C10.2222 28.4978 10.1156 28.5052 10.085 28.3993C10.0465 28.2666 10.1559 28.2315 10.2441 28.1794C10.3716 28.1042 10.5575 28.1021 10.6379 27.8341C10.1719 27.9122 9.74571 28.0021 9.32355 27.8814C9.24014 27.8575 9.14987 27.8556 9.0683 27.8277C8.97829 27.7969 8.84113 27.7878 8.86515 27.6485C8.88283 27.5459 8.99528 27.5528 9.08106 27.5461C9.48765 27.5146 9.89089 27.4647 10.2853 27.3547C10.4781 27.3008 10.646 27.2319 10.6373 26.9878C10.7209 27.3027 10.89 27.0873 10.9904 27.0234C11.5161 26.6893 11.8939 26.199 12.2984 25.7387C12.4939 25.5163 12.6239 25.2583 12.6705 24.9623C12.708 24.9178 12.7583 24.8789 12.7813 24.8277C13.2889 23.702 13.9616 22.6853 14.7921 21.7723C14.8727 21.6836 14.9402 21.5913 14.9229 21.4622C15.068 20.9548 15.444 20.572 15.6577 20.1015C15.8416 20.0752 15.8505 19.9018 15.9197 19.7828C16.177 19.3399 16.4308 18.8949 16.6817 18.4483C16.9339 17.9992 17.258 17.6872 17.792 17.5339C18.2361 17.4063 18.502 16.9948 18.6294 16.5279C18.6838 16.3286 18.525 16.2683 18.4235 16.183C17.7771 15.6402 17.5056 14.9712 17.771 14.1502C18.0344 13.3358 18.6088 12.814 19.4383 12.6218C19.9779 12.4968 20.4849 12.6273 20.897 13.0283C21.1789 13.3027 21.4725 13.562 21.8635 13.6685C22.0695 13.7245 22.0669 13.8803 22.0877 14.0449C22.1086 14.2105 22.2159 14.3827 22.3454 14.4331C22.5135 14.4985 22.5358 14.2603 22.6348 14.1674C23.5766 13.2853 23.6796 12.0795 23.8886 10.9147C23.9066 10.8142 23.8972 10.6996 23.9434 10.6148C24.3552 9.8586 24.3397 8.96612 24.6931 8.20485C24.9904 7.56478 25.1607 6.90518 25.3329 6.23142C25.4903 5.61545 25.3585 5.06886 25.0835 4.54136C24.8248 4.04464 24.6206 3.53657 24.5005 2.98726C24.1896 1.5649 25.0252 0.302076 26.472 0.0365658C27.7532 -0.198515 29.0125 0.726682 29.2014 2.04201C29.404 3.45364 28.456 4.68568 27.0371 4.80704C26.67 4.83844 26.6143 4.91979 26.7108 5.27413C26.8326 5.7223 26.6118 6.16793 26.5429 6.61206C26.3964 7.55581 26.568 8.51284 26.3774 9.45141C26.3133 9.76687 26.2991 10.094 26.0156 10.3174C25.9748 10.3494 25.9512 10.4171 25.9412 10.4721C25.6827 11.904 25.0431 13.2551 25.049 14.7446C25.0507 15.1891 24.8888 15.6135 24.6924 16.0032C24.1505 17.0789 24.3225 18.1676 24.8371 19.1275C25.3396 20.065 25.5056 21.0133 25.527 22.0311C25.5479 23.031 25.4866 24.0215 25.2515 24.9981C25.1075 25.5964 25.3471 26.1229 25.8801 26.426C26.5228 26.7918 26.6719 27.0731 26.5381 27.7558C26.5006 27.9477 26.6131 27.9835 26.7273 28.0397C27.1216 28.2331 27.5164 28.4258 27.9136 28.6132C29.0011 29.1263 29.9286 29.8572 30.7658 30.7089C30.9444 30.8908 31.1218 31.0248 31.393 31.0635C31.8574 31.13 32.2077 31.4538 32.5849 31.6993C34.5272 32.9637 36.3657 34.3663 38.1101 35.8922C38.2969 36.0556 38.4978 36.2031 38.6972 36.3512C38.8805 36.4872 39.1321 36.5809 38.9606 36.8925C38.9391 36.9314 38.9576 37.0085 38.9826 37.0545C39.1252 37.3164 40.1398 37.5134 40.4041 37.3711C40.671 37.2273 40.9174 37.0612 41.1636 36.8871C41.367 36.7432 41.6058 36.6951 41.8801 36.8054C41.4017 36.9872 41.0733 37.3172 40.8085 37.7266C40.6603 37.9556 40.7206 38.0319 40.9737 38.0348C41.2219 38.0375 41.4703 38.0504 41.7183 38.0649C42.4306 38.1065 43.1161 38.0749 43.7193 37.6015C44.0313 37.3565 44.4001 37.2644 44.7792 37.5174C45.0243 37.6809 45.0871 37.8494 44.8562 38.0784C44.076 38.8519 43.3092 39.642 42.3394 40.1876C41.7619 40.5124 41.2253 40.8891 40.7448 41.3467C40.6293 41.4568 40.483 41.5336 40.3591 41.6357C40.0909 41.8569 39.885 41.8204 39.7375 41.5006C39.4434 40.8627 39.0664 40.2814 38.5928 39.7592C38.171 39.2944 37.7342 38.8464 37.2587 38.4369C37.2152 38.3994 37.1601 38.3421 37.1147 38.3459C36.4623 38.401 36.1025 37.8877 35.624 37.5993C34.0351 36.6417 32.5587 35.5241 31.053 34.4467C30.2968 33.9058 29.42 33.6052 28.4923 33.4952C27.2584 33.3488 26.1816 32.7567 25.0768 32.2696C23.9498 31.7728 22.7128 31.5871 21.6296 30.9796C21.3967 30.849 21.1522 30.978 20.9207 31.0898C19.2465 31.8983 17.7011 32.9641 15.9685 33.6457C14.829 34.0943 13.9221 34.878 12.9094 35.5091C11.5827 36.3358 10.1348 36.9698 8.9409 38.0081C8.74231 38.1809 8.53519 38.344 8.32869 38.5074C8.24933 38.5703 8.13873 38.687 8.07969 38.6673C7.64478 38.5222 7.38777 38.8776 7.04656 38.9917C6.4311 39.1979 6.02231 39.6123 5.68568 40.1335C5.61546 40.2421 5.53566 40.3901 5.43026 40.4225C4.98329 40.5601 4.78883 40.9411 4.54142 41.2739C4.26417 41.6467 3.89235 41.7707 3.4547 41.6536C3.05797 41.5476 2.70726 41.6298 2.35734 41.816C1.77654 42.1252 1.17322 42.0415 0.702146 41.5896C0.565504 41.4584 0.458776 41.2968 0.328909 41.1579C-0.297201 40.4881 0.00335783 39.9519 0.952464 39.7293C1.61949 39.5728 2.2888 39.4205 2.94957 39.2395C3.1537 39.1835 3.40551 39.1292 3.43129 38.8111C3.44652 38.6237 3.6422 38.5459 3.79925 38.465C3.84457 38.5026 3.89798 38.5217 3.94206 38.4772C3.9557 38.4634 3.92974 38.4103 3.92191 38.3753C3.9183 38.096 3.87431 37.8248 3.78069 37.5599C3.73265 37.4237 3.76248 37.2675 3.90528 37.2331C4.04614 37.199 4.07008 37.3638 4.11328 37.4677C4.13 37.5081 4.13879 37.5517 4.15208 37.5937C4.2061 37.7642 4.149 38.0193 4.39703 38.0548C4.61585 38.086 4.65122 37.8542 4.74053 37.7113C4.8499 37.5364 4.98513 37.4696 5.17887 37.5976C5.44477 37.7734 5.55168 37.5893 5.59549 37.3763C5.61925 37.261 5.62154 37.1565 5.71005 37.0621C7.4593 35.1973 9.41857 33.6225 11.809 32.6426C11.9898 32.5685 12.1445 32.4695 12.2669 32.317C12.4559 32.0813 12.701 31.8882 12.9878 31.8438C13.42 31.777 13.6646 31.5293 13.8975 31.1918C14.5263 30.2806 15.3291 29.5318 16.2025 28.8592C16.4237 28.6888 16.6458 28.5301 16.7931 28.2847C16.9085 28.0926 17.1197 28.0548 17.3143 27.9907C17.834 27.8194 18.0746 27.49 18.0795 26.9541C18.082 26.6906 18.0754 26.4267 18.0885 26.1639C18.1125 25.688 18.2715 25.3284 18.804 25.2008C19.1784 25.111 19.4072 24.5645 19.3094 24.1912C19.0692 23.2755 18.6898 22.4245 18.1683 21.6348C17.9363 21.2835 17.7659 21.2714 17.5234 21.5987C17.4801 21.6571 17.4407 21.7415 17.3817 21.7615C16.8113 21.9558 16.6722 22.4919 16.4332 22.9455C16.0083 23.7516 15.2944 24.2531 14.5903 24.7862C13.7978 25.3862 13.3728 26.1983 13.3766 27.232C13.3781 27.6304 13.4009 27.9181 13.85 28.0036C13.9681 28.0261 14.0113 28.1219 13.9867 28.2399C13.9624 28.3566 13.8816 28.41 13.7687 28.4212C13.4823 28.4496 13.2145 28.4054 12.9831 28.2191C12.8851 28.1403 12.8211 27.9989 12.6569 28.0412C12.4541 27.9444 12.3831 28.1148 12.2816 28.2252C12.1351 28.3849 12.0048 28.5667 11.8345 28.6951C11.7039 28.7936 11.4463 28.8025 11.51 28.5664C11.6488 28.0518 11.3396 28.2541 11.1391 28.3005C10.9574 28.3422 10.7842 28.4224 10.6073 28.4857Z" fill="#4C4DDC"/>
</svg>
