<svg width="13" height="13" viewBox="0 0 13 13" fill="none" xmlns="http://www.w3.org/2000/svg">
<path d="M0.166626 12.8334C0.166626 10.256 2.25596 8.16671 4.83329 8.16671C7.41063 8.16671 9.49996 10.256 9.49996 12.8334H8.33329C8.33329 10.9004 6.76628 9.33337 4.83329 9.33337C2.9003 9.33337 1.33329 10.9004 1.33329 12.8334H0.166626ZM4.83329 7.58337C2.89954 7.58337 1.33329 6.01712 1.33329 4.08337C1.33329 2.14962 2.89954 0.583374 4.83329 0.583374C6.76704 0.583374 8.33329 2.14962 8.33329 4.08337C8.33329 6.01712 6.76704 7.58337 4.83329 7.58337ZM4.83329 6.41671C6.12246 6.41671 7.16663 5.37254 7.16663 4.08337C7.16663 2.79421 6.12246 1.75004 4.83329 1.75004C3.54413 1.75004 2.49996 2.79421 2.49996 4.08337C2.49996 5.37254 3.54413 6.41671 4.83329 6.41671ZM9.66545 8.57667C11.2875 9.30777 12.4166 10.9387 12.4166 12.8334H11.25C11.25 11.4124 10.4031 10.1892 9.18659 9.64085L9.66545 8.57667ZM9.26441 1.99108C10.43 2.47164 11.25 3.61881 11.25 4.95837C11.25 6.63266 9.96908 8.00641 8.33329 8.15364V6.97939C9.32303 6.83799 10.0833 5.98737 10.0833 4.95837C10.0833 4.15299 9.61756 3.45689 8.94054 3.12458L9.26441 1.99108Z" fill="black"/>
</svg>
